<svg preserveAspectRatio="none" overflow="visible" style="display: block;" width="46" height="46" viewBox="0 0 46 46" fill="none" xmlns="http://www.w3.org/2000/svg">
<g id="Group">
<path id="Vector" d="M17.5312 33.9375C26.5922 33.9375 33.9375 26.5922 33.9375 17.5312C33.9375 8.47033 26.5922 1.125 17.5312 1.125C8.47033 1.125 1.125 8.47033 1.125 17.5312C1.125 26.5922 8.47033 33.9375 17.5312 33.9375Z" stroke="white" stroke-width="2.25" stroke-linecap="round" stroke-linejoin="round"/>
<path id="Vector_2" d="M29.5625 29.5625L44.875 44.875" stroke="white" stroke-width="2.25" stroke-linecap="round" stroke-linejoin="round"/>
<path id="Vector_3" d="M8.78125 20.8125L15.3438 12.0625L23 18.625L28.4688 10.9688" stroke="white" stroke-width="2.25" stroke-linecap="round" stroke-linejoin="round"/>
<path id="Vector_4" d="M8.78125 23.5469C10.2914 23.5469 11.5156 22.3227 11.5156 20.8125C11.5156 19.3023 10.2914 18.0781 8.78125 18.0781C7.2711 18.0781 6.04688 19.3023 6.04688 20.8125C6.04688 22.3227 7.2711 23.5469 8.78125 23.5469Z" fill="white"/>
<path id="Vector_5" d="M15.3438 14.7969C16.8539 14.7969 18.0781 13.5727 18.0781 12.0625C18.0781 10.5523 16.8539 9.32812 15.3438 9.32812C13.8336 9.32812 12.6094 10.5523 12.6094 12.0625C12.6094 13.5727 13.8336 14.7969 15.3438 14.7969Z" fill="white"/>
<path id="Vector_6" d="M23 21.3594C24.5102 21.3594 25.7344 20.1352 25.7344 18.625C25.7344 17.1148 24.5102 15.8906 23 15.8906C21.4898 15.8906 20.2656 17.1148 20.2656 18.625C20.2656 20.1352 21.4898 21.3594 23 21.3594Z" fill="white"/>
<path id="Vector_7" d="M28.4688 13.7031C29.9789 13.7031 31.2031 12.4789 31.2031 10.9688C31.2031 9.4586 29.9789 8.23438 28.4688 8.23438C26.9586 8.23438 25.7344 9.4586 25.7344 10.9688C25.7344 12.4789 26.9586 13.7031 28.4688 13.7031Z" fill="white"/>
</g>
</svg>
